<svg xmlns="http://www.w3.org/2000/svg" xmlns:xlink="http://www.w3.org/1999/xlink" width="24" height="24" viewBox="0 0 24 24">
    <defs>
        <path id="a" d="M.293.293a1 1 0 0 1 1.414 0L7 5.585 12.293.293a1 1 0 0 1 1.32-.083l.094.083a1 1 0 0 1 0 1.414L8.415 7l5.292 5.293a1 1 0 0 1 .083 1.32l-.083.094a1 1 0 0 1-1.414 0L7 8.415l-5.293 5.292a1 1 0 0 1-1.32.083l-.094-.083a1 1 0 0 1 0-1.414L5.585 7 .293 1.707A1 1 0 0 1 .21.387z"/>
        <path id="c" d="M0 0h26v26H0z"/>
    </defs>
    <g fill="none" fill-rule="evenodd" transform="translate(5 5)">
        <mask id="b" fill="#fff">
            <use xlink:href="#a"/>
        </mask>
        <use fill="#000" fill-rule="nonzero" xlink:href="#a"/>
        <g mask="url(#b)">
            <use fill="#42526E" transform="translate(-5 -5)" xlink:href="#c"/>
        </g>
    </g>
</svg>
